<?xml version="1.0"?>
<svg xmlns="http://www.w3.org/2000/svg" viewBox="0 0 128 128" width="512" height="512"><title>1</title><g id="number"><text transform="translate(63.265 -282.265)" font-size="40" fill="#24253a" font-family="MyriadPro-Regular, Myriad Pro" letter-spacing="0.002em">5<tspan x="-10.3" y="228">15</tspan><tspan x="-10.3" y="456">25</tspan><tspan x="-10.3" y="684">35</tspan><tspan x="-10.3" y="912">45</tspan><tspan x="-10.3" y="1140">55</tspan><tspan x="-10.3" y="1368">65</tspan><tspan x="-10.3" y="1596">75</tspan><tspan x="-10.3" y="1824">85</tspan><tspan x="-10.3" y="2052">95</tspan><tspan x="-20.599" y="2280">105</tspan><tspan x="-20.599" y="2508">115</tspan><tspan x="-20.599" y="2736">125</tspan><tspan x="-20.599" y="2964">135</tspan><tspan x="-20.599" y="3192">145</tspan><tspan x="-20.599" y="3420">155</tspan><tspan x="-20.599" y="3648">165</tspan><tspan x="-20.599" y="3876">175</tspan><tspan x="-20.599" y="4104">185</tspan><tspan x="-20.599" y="4332">195</tspan><tspan x="-20.599" y="4560">205</tspan><tspan x="-20.599" y="4788">215</tspan><tspan x="-20.599" y="5016">225</tspan><tspan x="-20.599" y="5244">235</tspan><tspan x="-20.599" y="5472">245</tspan></text></g><g id="icon"><path d="M83.985,80.47a35.61,35.61,0,0,1,29.922-4.192c3.69,1.173,7.29,2.973,11,3.85a62.8,62.8,0,0,1-15.5,27.53,141.782,141.782,0,0,1-60.414-4.2c-6.5-1.914-12.985-4.317-19.762-4.454A45.4,45.4,0,0,0,13.7,101.918,62.6,62.6,0,0,1,2.533,77.805a83.856,83.856,0,0,1,19.831-1c10.365.775,12.415,1.709,20.856,7.768a77.841,77.841,0,0,0,8.042,4.875,20.717,20.717,0,0,0,21.539-.57" fill="#ffa245"/><path d="M88.852,110.151a142.419,142.419,0,0,1-40.141-5.736c-1.135-.334-2.271-.683-3.407-1.032-5.229-1.608-10.635-3.271-16.093-3.38-4.467-.083-9.157.8-15.192,2.862a1,1,0,0,1-1.122-.344,63.18,63.18,0,0,1-11.341-24.5,1,1,0,0,1,.815-1.2,85.109,85.109,0,0,1,20.067-1.013c10.7.8,12.848,1.839,21.363,7.953a77.512,77.512,0,0,0,7.939,4.81,19.784,19.784,0,0,0,20.525-.538,1,1,0,0,1,1.067,1.691,21.742,21.742,0,0,1-22.555.6,79.235,79.235,0,0,1-8.142-4.938c-8.243-5.918-10.1-6.819-20.348-7.584a82.391,82.391,0,0,0-18.539.826,61.137,61.137,0,0,0,10.313,22.113C20,98.761,24.7,97.917,29.251,98c5.738.116,11.281,1.82,16.641,3.469,1.128.347,2.256.694,3.384,1.025a141.232,141.232,0,0,0,59.648,4.223,61.963,61.963,0,0,0,14.755-25.875,59.464,59.464,0,0,1-5.668-2c-1.444-.564-2.937-1.148-4.407-1.615A34.385,34.385,0,0,0,84.537,81.3a1,1,0,0,1-1.1-1.668,36.413,36.413,0,0,1,30.775-4.311c1.532.487,3.056,1.083,4.53,1.659a49.1,49.1,0,0,0,6.4,2.172,1,1,0,0,1,.737,1.228,63.94,63.94,0,0,1-15.749,27.969,1,1,0,0,1-.576.3A142.853,142.853,0,0,1,88.852,110.151Z"/><path d="M109.408,107.659a62.669,62.669,0,0,1-24.6,15.81q-6.219-2.255-12.438-4.533c-7.518-2.745-15.229-5.524-23.236-5.65-5.957-.08-12.188,1.572-16.8,5.171A62.913,62.913,0,0,1,13.7,101.918,45.4,45.4,0,0,1,29.232,99c6.777.137,13.258,2.54,19.762,4.454A141.782,141.782,0,0,0,109.408,107.659Z" fill="#e1724b"/><path d="M84.8,124.53l-.334-.121q-6.22-2.255-12.441-4.534c-7.357-2.687-14.965-5.465-22.909-5.589a26.014,26.014,0,0,0-16.17,4.959l-.533.416-.584-.339a63.513,63.513,0,0,1-18.931-16.8l-.831-1.1,1.305-.447c6.265-2.145,11.157-3.051,15.879-2.97,5.738.116,11.281,1.82,16.641,3.469,1.128.347,2.256.694,3.384,1.025a141.248,141.248,0,0,0,59.987,4.173l2.886-.423-2.02,2.1a63.931,63.931,0,0,1-25,16.062ZM48.72,112.283l.424,0c8.283.129,16.4,3.094,23.566,5.71q6.051,2.211,12.1,4.411a61.914,61.914,0,0,0,21.777-13.356,143.2,143.2,0,0,1-57.876-4.636c-1.135-.334-2.271-.684-3.407-1.033-5.229-1.608-10.635-3.271-16.093-3.38a41.433,41.433,0,0,0-13.865,2.419A61.454,61.454,0,0,0,32.26,117.257,28.286,28.286,0,0,1,48.72,112.283Z"/><path d="M84.805,123.469a63.008,63.008,0,0,1-52.475-5.012c4.613-3.6,10.844-5.251,16.8-5.171,8.007.125,15.719,2.9,23.236,5.65Q78.586,121.208,84.805,123.469Z" fill="#ec8f4a"/><path d="M64.006,128a63.879,63.879,0,0,1-32.181-8.679l-1.274-.744,1.164-.908c4.5-3.508,10.867-5.466,17.429-5.382,8.283.129,16.4,3.094,23.566,5.71q6.218,2.273,12.437,4.533l2.631.954-2.64.929A63.467,63.467,0,0,1,64.006,128Zm-29.826-9.643a62.061,62.061,0,0,0,47.554,5.061q-4.855-1.766-9.711-3.542c-7.357-2.687-14.965-5.465-22.909-5.589A26.7,26.7,0,0,0,34.181,118.357Z"/><path d="M77.858,85.148A55.5,55.5,0,0,1,72.8,88.876a20.717,20.717,0,0,1-21.539.57,77.841,77.841,0,0,1-8.042-4.875c-8.44-6.06-10.491-6.994-20.856-7.768a83.856,83.856,0,0,0-19.831,1A62.612,62.612,0,0,1,1.006,64,63.687,63.687,0,0,1,2.259,51.4c8.19,1.447,16.6,2.756,24.706.98,5.49-1.219,10.593-3.793,15.981-5.41a46.986,46.986,0,0,1,28.225.5c4.579,1.549,8.907,3.8,13.5,5.353,9.01,3.053,18.7,3.3,28.214,3.52,4.5.1,9.534-.034,13.384-1.982A63.976,63.976,0,0,1,126.995,64a63.239,63.239,0,0,1-2.084,16.129c-3.713-.877-7.313-2.677-11-3.85A35.61,35.61,0,0,0,83.985,80.47" fill="#e1724b"/><path d="M61.519,93.2a22.059,22.059,0,0,1-10.74-2.878,79.235,79.235,0,0,1-8.142-4.938c-8.243-5.918-10.1-6.819-20.348-7.584a83.228,83.228,0,0,0-19.595.992,1,1,0,0,1-1.137-.767A63.832,63.832,0,0,1,.006,64,64.863,64.863,0,0,1,1.279,51.2a1,1,0,0,1,1.154-.787c8.731,1.542,16.587,2.681,24.318.987a66.933,66.933,0,0,0,9.233-3.026c2.166-.828,4.4-1.684,6.674-2.365a48.033,48.033,0,0,1,28.832.512c2.321.785,4.6,1.757,6.8,2.7,2.18.931,4.434,1.893,6.7,2.657,8.961,3.036,18.6,3.255,27.917,3.467,4.57.1,9.3-.051,12.91-1.875a1,1,0,0,1,1.44.742A65.322,65.322,0,0,1,128,64a64.389,64.389,0,0,1-2.117,16.383,1,1,0,0,1-1.2.719,50.585,50.585,0,0,1-6.67-2.255c-1.444-.564-2.937-1.148-4.407-1.615A34.385,34.385,0,0,0,84.537,81.3a1,1,0,0,1-1.1-1.668,36.413,36.413,0,0,1,30.775-4.311c1.532.487,3.056,1.083,4.53,1.659,1.787.7,3.625,1.417,5.451,1.926A62.426,62.426,0,0,0,126,64a63.306,63.306,0,0,0-.533-8.18c-3.767,1.492-8.261,1.627-12.6,1.525-9.47-.215-19.262-.438-28.512-3.572-2.337-.789-4.628-1.767-6.843-2.712-2.167-.925-4.408-1.881-6.654-2.641a46.015,46.015,0,0,0-27.619-.491c-2.2.66-4.4,1.5-6.533,2.317a68.4,68.4,0,0,1-9.517,3.111c-7.8,1.708-15.567.689-24.127-.8A62.947,62.947,0,0,0,2.006,64a61.925,61.925,0,0,0,1.3,12.67,84.481,84.481,0,0,1,19.13-.864c10.7.8,12.848,1.839,21.363,7.953a77.512,77.512,0,0,0,7.939,4.81,19.784,19.784,0,0,0,20.525-.538,55.318,55.318,0,0,0,4.965-3.662,1,1,0,0,1,1.254,1.559,56.983,56.983,0,0,1-5.151,3.794A22.543,22.543,0,0,1,61.519,93.2Z"/><path d="M126.266,54.364c-3.85,1.948-8.884,2.084-13.384,1.982-9.511-.216-19.2-.467-28.214-3.52-4.59-1.549-8.919-3.8-13.5-5.353a46.986,46.986,0,0,0-28.225-.5c-5.388,1.617-10.491,4.192-15.981,5.41-8.11,1.777-16.516.467-24.706-.98a62.991,62.991,0,0,1,22.018-36.29c8.212,2.415,17.188,2.267,25.754,1.1,10.878-1.481,21.528-4.5,32.451-5.547A90.7,90.7,0,0,1,97.2,10.454a63.052,63.052,0,0,1,29.068,43.91Z" fill="#ec8f4a"/><path d="M114.887,57.371c-.677,0-1.354-.01-2.028-.025-9.47-.215-19.262-.438-28.512-3.572-2.337-.789-4.628-1.767-6.843-2.712-2.167-.925-4.408-1.881-6.654-2.641a46.015,46.015,0,0,0-27.619-.491c-2.2.66-4.4,1.5-6.533,2.317a68.4,68.4,0,0,1-9.517,3.111c-8.09,1.772-16.152.608-25.1-.971A1,1,0,0,1,1.28,51.2,63.988,63.988,0,0,1,23.646,14.337a1,1,0,0,1,.913-.184c7.063,2.077,15.352,2.428,25.337,1.073,4.742-.646,9.534-1.6,14.169-2.531A183.368,183.368,0,0,1,82.386,9.675a91.739,91.739,0,0,1,14.879-.218.992.992,0,0,1,.459.148,64.052,64.052,0,0,1,29.53,44.606,1,1,0,0,1-.537,1.045C123.276,57,119.074,57.371,114.887,57.371ZM56.249,44.046A47.82,47.82,0,0,1,71.49,46.525c2.321.785,4.6,1.757,6.8,2.7,2.18.931,4.434,1.893,6.7,2.657,8.961,3.036,18.6,3.255,27.917,3.467,4.3.1,8.742-.034,12.254-1.566A62.053,62.053,0,0,0,96.882,11.436a89.8,89.8,0,0,0-14.305.23,181.859,181.859,0,0,0-18.12,2.991c-4.665.933-9.488,1.9-14.292,2.551-10.033,1.361-18.435,1.038-25.66-.989A61.975,61.975,0,0,0,3.454,50.6c8.325,1.447,15.869,2.436,23.3.808a66.933,66.933,0,0,0,9.233-3.026c2.166-.828,4.4-1.684,6.674-2.365A47.61,47.61,0,0,1,56.249,44.046Z"/><path d="M97.2,10.454a90.7,90.7,0,0,0-14.716.216c-10.923,1.048-21.573,4.066-32.451,5.547-8.566,1.162-17.541,1.31-25.754-1.1A62.985,62.985,0,0,1,97.2,10.454Z" fill="#e1724b"/><path d="M38.8,18.032a52.19,52.19,0,0,1-14.8-1.959,1,1,0,0,1-.349-1.735A63.983,63.983,0,0,1,97.726,9.6a1,1,0,0,1,.424,1.156.983.983,0,0,1-1.019.691,89.776,89.776,0,0,0-14.554.214,181.859,181.859,0,0,0-18.12,2.991c-4.665.933-9.488,1.9-14.292,2.551A84.7,84.7,0,0,1,38.8,18.032ZM26.463,14.664c6.641,1.616,14.33,1.8,23.433.563,4.742-.646,9.534-1.6,14.169-2.531A183.368,183.368,0,0,1,82.386,9.675a92.47,92.47,0,0,1,10.767-.4,62,62,0,0,0-66.69,5.39Z"/><path d="M62.755,84.744a14.006,14.006,0,0,1-5.247-.987,9.827,9.827,0,0,1-5.6-5.345c-.352-.855-1.989-7.458,1.021-11.554,1.641-2.231,4.278-3.208,7.831-2.9,2.064.179,4.172,2.026,5.369,4.7s1.079,5.387-.316,7.247a1,1,0,0,1-1.6-1.2c.952-1.27.986-3.225.089-5.23-.863-1.933-2.426-3.416-3.716-3.528-2.815-.243-4.847.459-6.046,2.089-2.244,3.053-1.18,8.641-.783,9.609A7.954,7.954,0,0,0,58.262,81.9a12.5,12.5,0,0,0,9.35-.126,14.3,14.3,0,0,0,8.346-10.163A12.044,12.044,0,0,0,71.21,59.744c-2.2-1.494-5.083-2.293-8.821-2.441C54.8,57,46.762,59.16,37.059,64.094l-.227.115a18.583,18.583,0,0,1-3.461,1.476,18.446,18.446,0,0,1-4.516.5c-8.667.23-19.4.512-28.045-1.2a1,1,0,1,1,.39-1.962c8.421,1.673,19.032,1.393,27.561,1.167a17.144,17.144,0,0,0,4.076-.428,16.892,16.892,0,0,0,3.087-1.331l.229-.117c10.022-5.1,18.386-7.326,26.316-7.007,4.124.164,7.351,1.075,9.867,2.786a14.1,14.1,0,0,1,5.59,13.884,16.128,16.128,0,0,1-9.521,11.64A14.368,14.368,0,0,1,62.755,84.744Z"/><path d="M40.921,33.425a1,1,0,0,1-.319-1.948,94.647,94.647,0,0,1,13.743-3.761,1,1,0,0,1,.345,1.97,92.988,92.988,0,0,0-13.45,3.687A1,1,0,0,1,40.921,33.425Z"/><path d="M14.612,39.518a32.634,32.634,0,0,1-8.067-.951,1,1,0,0,1,.494-1.938c5.867,1.5,12.995,1.107,21.186-1.156,2.536-.7,5.031-1.513,6.921-2.146a1,1,0,0,1,.635,1.9c-1.915.641-4.444,1.467-7.025,2.178A53.492,53.492,0,0,1,14.612,39.518Z"/><path d="M83.15,36.4h-.058A110.85,110.85,0,0,1,66.2,34.125a1,1,0,1,1,.42-1.955A108.876,108.876,0,0,0,83.206,34.4a1,1,0,0,1-.056,2Z"/><path d="M89.469,36.581q-1.469,0-2.939-.039a1,1,0,0,1-.974-1.025.974.974,0,0,1,1.025-.974,109.221,109.221,0,0,0,30.828-3.589,1,1,0,0,1,.513,1.934A111,111,0,0,1,89.469,36.581Z"/></g></svg>
